<mxfile host="65bd71144e">
    <diagram id="nUoHW4XtrTt13sGI9Wkj" name="Page-1">
        <mxGraphModel dx="311" dy="281" grid="1" gridSize="10" guides="1" tooltips="1" connect="1" arrows="1" fold="1" page="1" pageScale="1" pageWidth="850" pageHeight="1100" math="0" shadow="0">
            <root>
                <mxCell id="0"/>
                <mxCell id="1" parent="0"/>
                <mxCell id="2" value="venues" style="whiteSpace=wrap;html=1;verticalAlign=top;" vertex="1" parent="1">
                    <mxGeometry x="100" y="320" width="120" height="120" as="geometry"/>
                </mxCell>
                <mxCell id="3" value="events" style="whiteSpace=wrap;html=1;verticalAlign=top;" vertex="1" parent="1">
                    <mxGeometry x="280" y="320" width="120" height="120" as="geometry"/>
                </mxCell>
                <mxCell id="4" value="artists" style="whiteSpace=wrap;html=1;verticalAlign=top;" vertex="1" parent="1">
                    <mxGeometry x="460" y="320" width="120" height="120" as="geometry"/>
                </mxCell>
                <mxCell id="5" value="genres" style="whiteSpace=wrap;html=1;verticalAlign=top;" vertex="1" parent="1">
                    <mxGeometry x="100" y="460" width="120" height="120" as="geometry"/>
                </mxCell>
                <mxCell id="6" value="albums" style="whiteSpace=wrap;html=1;verticalAlign=top;" vertex="1" parent="1">
                    <mxGeometry x="280" y="460" width="120" height="120" as="geometry"/>
                </mxCell>
                <mxCell id="7" value="songs" style="whiteSpace=wrap;html=1;verticalAlign=top;" vertex="1" parent="1">
                    <mxGeometry x="460" y="460" width="120" height="120" as="geometry"/>
                </mxCell>
                <mxCell id="8" value="&lt;font style=&quot;font-size: 9px;&quot;&gt;Indexes&lt;br&gt;1. ID (list)&lt;br&gt;&lt;/font&gt;" style="text;html=1;align=left;verticalAlign=middle;resizable=0;points=[];autosize=1;strokeColor=none;fillColor=none;" vertex="1" parent="1">
                    <mxGeometry x="110" y="360" width="60" height="40" as="geometry"/>
                </mxCell>
                <mxCell id="9" value="&lt;font style=&quot;font-size: 9px;&quot;&gt;Indexes&lt;br&gt;1. ID (list)&lt;br&gt;2. EventDate (range)&lt;br&gt;&lt;/font&gt;" style="text;html=1;align=left;verticalAlign=middle;resizable=0;points=[];autosize=1;strokeColor=none;fillColor=none;" vertex="1" parent="1">
                    <mxGeometry x="285" y="350" width="110" height="60" as="geometry"/>
                </mxCell>
                <mxCell id="10" value="&lt;font style=&quot;font-size: 9px;&quot;&gt;Indexes&lt;br&gt;1. ID (list)&lt;br&gt;2. Name (list)&lt;br&gt;&lt;/font&gt;" style="text;html=1;align=left;verticalAlign=middle;resizable=0;points=[];autosize=1;strokeColor=none;fillColor=none;" vertex="1" parent="1">
                    <mxGeometry x="465" y="360" width="80" height="60" as="geometry"/>
                </mxCell>
                <mxCell id="11" value="Order By Indexing:&lt;br&gt;1. Event Date (allows for key set pagination)&lt;br&gt;2. Artist Name&lt;br&gt;3. Song Title (allows for key set pagination)&lt;br&gt;4. (Song Title, ArtistID) avoids sorting for distinct on requirement" style="text;html=1;align=left;verticalAlign=middle;resizable=0;points=[];autosize=1;strokeColor=none;fillColor=none;fontSize=9;" vertex="1" parent="1">
                    <mxGeometry x="600" y="330" width="280" height="70" as="geometry"/>
                </mxCell>
                <mxCell id="12" value="&lt;font style=&quot;font-size: 9px;&quot;&gt;Indexes&lt;br&gt;1. ID (list)&lt;br&gt;2. Name (list)&lt;br&gt;&lt;/font&gt;" style="text;html=1;align=left;verticalAlign=middle;resizable=0;points=[];autosize=1;strokeColor=none;fillColor=none;" vertex="1" parent="1">
                    <mxGeometry x="465" y="490" width="80" height="60" as="geometry"/>
                </mxCell>
                <mxCell id="13" value="&lt;font style=&quot;font-size: 9px;&quot;&gt;Indexes&lt;br&gt;1. ID (list)&lt;br&gt;&lt;/font&gt;" style="text;html=1;align=left;verticalAlign=middle;resizable=0;points=[];autosize=1;strokeColor=none;fillColor=none;" vertex="1" parent="1">
                    <mxGeometry x="110" y="500" width="60" height="40" as="geometry"/>
                </mxCell>
                <mxCell id="14" value="&lt;font style=&quot;font-size: 9px;&quot;&gt;Indexes&lt;br&gt;1. ID (list)&lt;br&gt;&lt;/font&gt;" style="text;html=1;align=left;verticalAlign=middle;resizable=0;points=[];autosize=1;strokeColor=none;fillColor=none;" vertex="1" parent="1">
                    <mxGeometry x="300" y="500" width="60" height="40" as="geometry"/>
                </mxCell>
                <mxCell id="15" value="Partition Prunning:&lt;br&gt;- take advantage of song partitions by joining on filtered artists IDs&lt;br&gt;- take advantage of event partitions by including event range in where condition" style="text;html=1;align=left;verticalAlign=middle;resizable=0;points=[];autosize=1;strokeColor=none;fillColor=none;fontSize=9;" vertex="1" parent="1">
                    <mxGeometry x="600" y="390" width="340" height="50" as="geometry"/>
                </mxCell>
                <mxCell id="16" value="Key Set Pagination (make dynamic based on large offsets):&lt;br&gt;- ok (deterministic): order by song name, random with seed&lt;br&gt;- unable: order by artist name, event date" style="text;html=1;align=left;verticalAlign=middle;resizable=0;points=[];autosize=1;strokeColor=none;fillColor=none;fontSize=9;" vertex="1" parent="1">
                    <mxGeometry x="600" y="440" width="260" height="50" as="geometry"/>
                </mxCell>
                <mxCell id="17" value="Join Indexing:&lt;br&gt;1. events: VenueID&lt;br&gt;2. events_artists: EventID, ArtistID&lt;br&gt;3. artists_genres: ArtistID, GenreID&lt;br&gt;4. songs: AlbumID" style="text;html=1;align=left;verticalAlign=middle;resizable=0;points=[];autosize=1;strokeColor=none;fillColor=none;fontSize=9;" vertex="1" parent="1">
                    <mxGeometry x="601" y="265" width="160" height="70" as="geometry"/>
                </mxCell>
            </root>
        </mxGraphModel>
    </diagram>
</mxfile>